<svg xmlns="http://www.w3.org/2000/svg" viewBox="0 0 1000 440" role="img" aria-label="The GPU paints cell backgrounds, then adds letter shapes to form the terminal screen"><title>The GPU paints cell backgrounds, then adds letter shapes to form the terminal screen</title><defs><marker id="bg" viewBox="0 0 10 10" refX="8" refY="5" markerWidth="7" markerHeight="7" orient="auto-start-reverse"><path d="M0 0 L10 5 L0 10Z" fill="#0d1117"/></marker><marker id="panel" viewBox="0 0 10 10" refX="8" refY="5" markerWidth="7" markerHeight="7" orient="auto-start-reverse"><path d="M0 0 L10 5 L0 10Z" fill="#161e29"/></marker><marker id="line" viewBox="0 0 10 10" refX="8" refY="5" markerWidth="7" markerHeight="7" orient="auto-start-reverse"><path d="M0 0 L10 5 L0 10Z" fill="#33465a"/></marker><marker id="text" viewBox="0 0 10 10" refX="8" refY="5" markerWidth="7" markerHeight="7" orient="auto-start-reverse"><path d="M0 0 L10 5 L0 10Z" fill="#e6edf3"/></marker><marker id="muted" viewBox="0 0 10 10" refX="8" refY="5" markerWidth="7" markerHeight="7" orient="auto-start-reverse"><path d="M0 0 L10 5 L0 10Z" fill="#a4b3c4"/></marker><marker id="blue" viewBox="0 0 10 10" refX="8" refY="5" markerWidth="7" markerHeight="7" orient="auto-start-reverse"><path d="M0 0 L10 5 L0 10Z" fill="#58a6ff"/></marker><marker id="green" viewBox="0 0 10 10" refX="8" refY="5" markerWidth="7" markerHeight="7" orient="auto-start-reverse"><path d="M0 0 L10 5 L0 10Z" fill="#7ee787"/></marker><marker id="gold" viewBox="0 0 10 10" refX="8" refY="5" markerWidth="7" markerHeight="7" orient="auto-start-reverse"><path d="M0 0 L10 5 L0 10Z" fill="#f2b66d"/></marker><marker id="purple" viewBox="0 0 10 10" refX="8" refY="5" markerWidth="7" markerHeight="7" orient="auto-start-reverse"><path d="M0 0 L10 5 L0 10Z" fill="#c4a5ff"/></marker><marker id="red" viewBox="0 0 10 10" refX="8" refY="5" markerWidth="7" markerHeight="7" orient="auto-start-reverse"><path d="M0 0 L10 5 L0 10Z" fill="#ff8989"/></marker></defs><g font-family="Inter, Helvetica Neue, Arial, sans-serif"><text x="155" y="75" font-size="34" fill="#58a6ff" text-anchor="middle" font-weight="600">1. Background</text><text x="155" y="118" font-size="27" fill="#a4b3c4" text-anchor="middle" font-weight="400">Paint the cells</text><rect x="32" y="145" width="41" height="44" rx="0" fill="#161e29" stroke="#33465a" stroke-width="2"/><rect x="73" y="145" width="41" height="44" rx="0" fill="#161e29" stroke="#33465a" stroke-width="2"/><rect x="114" y="145" width="41" height="44" rx="0" fill="#161e29" stroke="#33465a" stroke-width="2"/><rect x="155" y="145" width="41" height="44" rx="0" fill="#161e29" stroke="#33465a" stroke-width="2"/><rect x="196" y="145" width="41" height="44" rx="0" fill="#161e29" stroke="#33465a" stroke-width="2"/><rect x="237" y="145" width="41" height="44" rx="0" fill="#161e29" stroke="#33465a" stroke-width="2"/><rect x="32" y="189" width="41" height="44" rx="0" fill="#1c4432" stroke="#7ee787" stroke-width="2"/><rect x="73" y="189" width="41" height="44" rx="0" fill="#1c4432" stroke="#7ee787" stroke-width="2"/><rect x="114" y="189" width="41" height="44" rx="0" fill="#1c4432" stroke="#7ee787" stroke-width="2"/><rect x="155" y="189" width="41" height="44" rx="0" fill="#1c4432" stroke="#7ee787" stroke-width="2"/><rect x="196" y="189" width="41" height="44" rx="0" fill="#1c4432" stroke="#7ee787" stroke-width="2"/><rect x="237" y="189" width="41" height="44" rx="0" fill="#1c4432" stroke="#7ee787" stroke-width="2"/><rect x="32" y="233" width="41" height="44" rx="0" fill="#161e29" stroke="#33465a" stroke-width="2"/><rect x="73" y="233" width="41" height="44" rx="0" fill="#161e29" stroke="#33465a" stroke-width="2"/><rect x="114" y="233" width="41" height="44" rx="0" fill="#161e29" stroke="#33465a" stroke-width="2"/><rect x="155" y="233" width="41" height="44" rx="0" fill="#161e29" stroke="#33465a" stroke-width="2"/><rect x="196" y="233" width="41" height="44" rx="0" fill="#161e29" stroke="#33465a" stroke-width="2"/><rect x="237" y="233" width="41" height="44" rx="0" fill="#161e29" stroke="#33465a" stroke-width="2"/><rect x="32" y="277" width="41" height="44" rx="0" fill="#161e29" stroke="#33465a" stroke-width="2"/><rect x="73" y="277" width="41" height="44" rx="0" fill="#161e29" stroke="#33465a" stroke-width="2"/><rect x="114" y="277" width="41" height="44" rx="0" fill="#161e29" stroke="#33465a" stroke-width="2"/><rect x="155" y="277" width="41" height="44" rx="0" fill="#161e29" stroke="#33465a" stroke-width="2"/><rect x="196" y="277" width="41" height="44" rx="0" fill="#161e29" stroke="#33465a" stroke-width="2"/><rect x="237" y="277" width="41" height="44" rx="0" fill="#161e29" stroke="#33465a" stroke-width="2"/><text x="328" y="255" font-size="60" fill="#a4b3c4" text-anchor="middle" font-weight="400">+</text><text x="502" y="75" font-size="34" fill="#c4a5ff" text-anchor="middle" font-weight="600">2. Letters</text><text x="502" y="118" font-size="27" fill="#a4b3c4" text-anchor="middle" font-weight="400">Add the shapes</text><rect x="379" y="145" width="41" height="44" rx="0" fill="#161e29" stroke="#33465a" stroke-width="2"/><text x="399.5" y="177.56" font-size="29.48" fill="#e6edf3" text-anchor="middle" font-weight="500">R</text><rect x="420" y="145" width="41" height="44" rx="0" fill="#161e29" stroke="#33465a" stroke-width="2"/><text x="440.5" y="177.56" font-size="29.48" fill="#e6edf3" text-anchor="middle" font-weight="500">E</text><rect x="461" y="145" width="41" height="44" rx="0" fill="#161e29" stroke="#33465a" stroke-width="2"/><text x="481.5" y="177.56" font-size="29.48" fill="#e6edf3" text-anchor="middle" font-weight="500">A</text><rect x="502" y="145" width="41" height="44" rx="0" fill="#161e29" stroke="#33465a" stroke-width="2"/><text x="522.5" y="177.56" font-size="29.48" fill="#e6edf3" text-anchor="middle" font-weight="500">D</text><rect x="543" y="145" width="41" height="44" rx="0" fill="#161e29" stroke="#33465a" stroke-width="2"/><text x="563.5" y="177.56" font-size="29.48" fill="#e6edf3" text-anchor="middle" font-weight="500">Y</text><rect x="584" y="145" width="41" height="44" rx="0" fill="#161e29" stroke="#33465a" stroke-width="2"/><rect x="379" y="189" width="41" height="44" rx="0" fill="#161e29" stroke="#33465a" stroke-width="2"/><text x="399.5" y="221.56" font-size="29.48" fill="#e6edf3" text-anchor="middle" font-weight="500">&gt;</text><rect x="420" y="189" width="41" height="44" rx="0" fill="#161e29" stroke="#33465a" stroke-width="2"/><text x="440.5" y="221.56" font-size="29.48" fill="#e6edf3" text-anchor="middle" font-weight="500">_</text><rect x="461" y="189" width="41" height="44" rx="0" fill="#161e29" stroke="#33465a" stroke-width="2"/><rect x="502" y="189" width="41" height="44" rx="0" fill="#161e29" stroke="#33465a" stroke-width="2"/><rect x="543" y="189" width="41" height="44" rx="0" fill="#161e29" stroke="#33465a" stroke-width="2"/><rect x="584" y="189" width="41" height="44" rx="0" fill="#161e29" stroke="#33465a" stroke-width="2"/><rect x="379" y="233" width="41" height="44" rx="0" fill="#161e29" stroke="#33465a" stroke-width="2"/><rect x="420" y="233" width="41" height="44" rx="0" fill="#161e29" stroke="#33465a" stroke-width="2"/><rect x="461" y="233" width="41" height="44" rx="0" fill="#161e29" stroke="#33465a" stroke-width="2"/><rect x="502" y="233" width="41" height="44" rx="0" fill="#161e29" stroke="#33465a" stroke-width="2"/><rect x="543" y="233" width="41" height="44" rx="0" fill="#161e29" stroke="#33465a" stroke-width="2"/><rect x="584" y="233" width="41" height="44" rx="0" fill="#161e29" stroke="#33465a" stroke-width="2"/><rect x="379" y="277" width="41" height="44" rx="0" fill="#161e29" stroke="#33465a" stroke-width="2"/><rect x="420" y="277" width="41" height="44" rx="0" fill="#161e29" stroke="#33465a" stroke-width="2"/><rect x="461" y="277" width="41" height="44" rx="0" fill="#161e29" stroke="#33465a" stroke-width="2"/><rect x="502" y="277" width="41" height="44" rx="0" fill="#161e29" stroke="#33465a" stroke-width="2"/><rect x="543" y="277" width="41" height="44" rx="0" fill="#161e29" stroke="#33465a" stroke-width="2"/><rect x="584" y="277" width="41" height="44" rx="0" fill="#161e29" stroke="#33465a" stroke-width="2"/><text x="676" y="255" font-size="60" fill="#a4b3c4" text-anchor="middle" font-weight="400">=</text><text x="845" y="75" font-size="34" fill="#7ee787" text-anchor="middle" font-weight="600">The screen</text><rect x="722" y="145" width="41" height="44" rx="0" fill="#161e29" stroke="#33465a" stroke-width="2"/><text x="742.5" y="177.56" font-size="29.48" fill="#e6edf3" text-anchor="middle" font-weight="500">R</text><rect x="763" y="145" width="41" height="44" rx="0" fill="#161e29" stroke="#33465a" stroke-width="2"/><text x="783.5" y="177.56" font-size="29.48" fill="#e6edf3" text-anchor="middle" font-weight="500">E</text><rect x="804" y="145" width="41" height="44" rx="0" fill="#161e29" stroke="#33465a" stroke-width="2"/><text x="824.5" y="177.56" font-size="29.48" fill="#e6edf3" text-anchor="middle" font-weight="500">A</text><rect x="845" y="145" width="41" height="44" rx="0" fill="#161e29" stroke="#33465a" stroke-width="2"/><text x="865.5" y="177.56" font-size="29.48" fill="#e6edf3" text-anchor="middle" font-weight="500">D</text><rect x="886" y="145" width="41" height="44" rx="0" fill="#161e29" stroke="#33465a" stroke-width="2"/><text x="906.5" y="177.56" font-size="29.48" fill="#e6edf3" text-anchor="middle" font-weight="500">Y</text><rect x="927" y="145" width="41" height="44" rx="0" fill="#161e29" stroke="#33465a" stroke-width="2"/><rect x="722" y="189" width="41" height="44" rx="0" fill="#1c4432" stroke="#7ee787" stroke-width="2"/><text x="742.5" y="221.56" font-size="29.48" fill="#7ee787" text-anchor="middle" font-weight="500">&gt;</text><rect x="763" y="189" width="41" height="44" rx="0" fill="#1c4432" stroke="#7ee787" stroke-width="2"/><text x="783.5" y="221.56" font-size="29.48" fill="#7ee787" text-anchor="middle" font-weight="500">_</text><rect x="804" y="189" width="41" height="44" rx="0" fill="#1c4432" stroke="#7ee787" stroke-width="2"/><rect x="845" y="189" width="41" height="44" rx="0" fill="#1c4432" stroke="#7ee787" stroke-width="2"/><rect x="886" y="189" width="41" height="44" rx="0" fill="#1c4432" stroke="#7ee787" stroke-width="2"/><rect x="927" y="189" width="41" height="44" rx="0" fill="#1c4432" stroke="#7ee787" stroke-width="2"/><rect x="722" y="233" width="41" height="44" rx="0" fill="#161e29" stroke="#33465a" stroke-width="2"/><rect x="763" y="233" width="41" height="44" rx="0" fill="#161e29" stroke="#33465a" stroke-width="2"/><rect x="804" y="233" width="41" height="44" rx="0" fill="#161e29" stroke="#33465a" stroke-width="2"/><rect x="845" y="233" width="41" height="44" rx="0" fill="#161e29" stroke="#33465a" stroke-width="2"/><rect x="886" y="233" width="41" height="44" rx="0" fill="#161e29" stroke="#33465a" stroke-width="2"/><rect x="927" y="233" width="41" height="44" rx="0" fill="#161e29" stroke="#33465a" stroke-width="2"/><rect x="722" y="277" width="41" height="44" rx="0" fill="#161e29" stroke="#33465a" stroke-width="2"/><rect x="763" y="277" width="41" height="44" rx="0" fill="#161e29" stroke="#33465a" stroke-width="2"/><rect x="804" y="277" width="41" height="44" rx="0" fill="#161e29" stroke="#33465a" stroke-width="2"/><rect x="845" y="277" width="41" height="44" rx="0" fill="#161e29" stroke="#33465a" stroke-width="2"/><rect x="886" y="277" width="41" height="44" rx="0" fill="#161e29" stroke="#33465a" stroke-width="2"/><rect x="927" y="277" width="41" height="44" rx="0" fill="#161e29" stroke="#33465a" stroke-width="2"/></g></svg>